<svg width="20" height="20" viewBox="0 0 20 20" fill="none" xmlns="http://www.w3.org/2000/svg">
<path fill-rule="evenodd" clip-rule="evenodd" d="M9.16675 1.66669C13.3089 1.66669 16.6667 5.02455 16.6667 9.16669C16.6667 10.9373 16.0532 12.5647 15.027 13.8477L18.0893 16.9108C18.4148 17.2362 18.4148 17.7638 18.0893 18.0893C17.7889 18.3897 17.3162 18.4128 16.9893 18.1586L16.9108 18.0893L13.8477 15.0269C12.5647 16.0531 10.9374 16.6667 9.16675 16.6667C5.02461 16.6667 1.66675 13.3088 1.66675 9.16669C1.66675 5.02455 5.02461 1.66669 9.16675 1.66669ZM9.16675 3.33335C5.94509 3.33335 3.33341 5.94503 3.33341 9.16669C3.33341 12.3883 5.94509 15 9.16675 15C12.3884 15 15.0001 12.3883 15.0001 9.16669C15.0001 5.94503 12.3884 3.33335 9.16675 3.33335Z" fill="#252020"/>
</svg>
