<svg width="32" height="32" viewBox="0 0 30 30" fill="none" xmlns="http://www.w3.org/2000/svg">
<path fill-rule="evenodd" clip-rule="evenodd" d="M3.22319 15.3275L2.50769 8.88798C2.44754 8.34669 2.74479 7.82875 3.2425 7.60762L14.4925 2.60914C14.8156 2.46557 15.1845 2.46557 15.5076 2.60914L23.2466 6.04764L26.1581 3.05294C26.5431 2.65695 27.1762 2.64803 27.5722 3.03302C27.9681 3.41801 27.9771 4.05111 27.5921 4.44709L25.1945 6.91314L26.7576 7.60762C27.2553 7.82875 27.5525 8.34669 27.4924 8.88798L26.7769 15.3275C26.3971 18.7457 24.4746 21.8024 21.5582 23.6252L15.6625 27.3099C15.2572 27.5633 14.7429 27.5633 14.3375 27.3099L8.75592 23.8214L5.71707 26.9471C5.33209 27.3431 4.69898 27.352 4.303 26.967C3.90701 26.582 3.8981 25.9489 4.28308 25.5529L7.10746 22.6479C4.94408 20.8044 3.54158 18.193 3.22319 15.3275ZM10.5388 21.9876L15 24.7759L20.2332 21.5052C22.5015 20.0874 23.9968 17.71 24.2922 15.0515L24.9067 9.5209L23.3372 8.82356L10.5388 21.9876ZM21.3892 7.95806L8.855 20.8504C7.10088 19.4117 5.96166 17.3353 5.7079 15.0515L5.0934 9.5209L15 5.11929L21.3892 7.95806Z" fill="#8D8D8D"/>
</svg>
