<svg width="24" height="24" viewBox="0 0 24 24" fill="none" xmlns="http://www.w3.org/2000/svg">
<path fill-rule="evenodd" clip-rule="evenodd" d="M12 6C8.68629 6 6 8.68629 6 12C6 15.3137 8.68629 18 12 18C15.3137 18 18 15.3137 18 12C18 8.68629 15.3137 6 12 6Z" fill="#FF9A44"/>
<path fill-rule="evenodd" clip-rule="evenodd" d="M12 1C12.5523 1 13 1.44772 13 2V4C13 4.55228 12.5523 5 12 5C11.4477 5 11 4.55228 11 4V2C11 1.44772 11.4477 1 12 1Z" fill="#FF9A44"/>
<path fill-rule="evenodd" clip-rule="evenodd" d="M1 12C1 11.4477 1.44772 11 2 11H4C4.55228 11 5 11.4477 5 12C5 12.5523 4.55228 13 4 13H2C1.44772 13 1 12.5523 1 12Z" fill="#FF9A44"/>
<path fill-rule="evenodd" clip-rule="evenodd" d="M19 12C19 11.4477 19.4477 11 20 11H22C22.5523 11 23 11.4477 23 12C23 12.5523 22.5523 13 22 13H20C19.4477 13 19 12.5523 19 12Z" fill="#FF9A44"/>
<path fill-rule="evenodd" clip-rule="evenodd" d="M12 19C12.5523 19 13 19.4477 13 20V22C13 22.5523 12.5523 23 12 23C11.4477 23 11 22.5523 11 22V20C11 19.4477 11.4477 19 12 19Z" fill="#FF9A44"/>
<path fill-rule="evenodd" clip-rule="evenodd" d="M6.53548 16.7071C6.926 17.0976 6.926 17.7308 6.53548 18.1213L5.12126 19.5355C4.73074 19.9261 4.09757 19.9261 3.70705 19.5355C3.31652 19.145 3.31652 18.5118 3.70705 18.1213L5.12126 16.7071C5.51179 16.3166 6.14495 16.3166 6.53548 16.7071Z" fill="#FF9A44"/>
<path fill-rule="evenodd" clip-rule="evenodd" d="M16.7072 16.7071C16.3167 17.0976 16.3167 17.7308 16.7072 18.1213L18.1214 19.5355C18.5119 19.9261 19.1451 19.9261 19.5356 19.5355C19.9262 19.145 19.9262 18.5118 19.5356 18.1213L18.1214 16.7071C17.7309 16.3166 17.0977 16.3166 16.7072 16.7071Z" fill="#FF9A44"/>
<path fill-rule="evenodd" clip-rule="evenodd" d="M16.707 7.53508C16.3164 7.14456 16.3164 6.51139 16.707 6.12087L18.1212 4.70665C18.5117 4.31613 19.1449 4.31613 19.5354 4.70665C19.9259 5.09718 19.9259 5.73034 19.5354 6.12087L18.1212 7.53508C17.7306 7.92561 17.0975 7.92561 16.707 7.53508Z" fill="#FF9A44"/>
<path fill-rule="evenodd" clip-rule="evenodd" d="M6.53548 7.53508C6.926 7.14456 6.926 6.51139 6.53548 6.12087L5.12126 4.70665C4.73074 4.31613 4.09757 4.31613 3.70705 4.70665C3.31652 5.09718 3.31652 5.73034 3.70705 6.12087L5.12126 7.53508C5.51179 7.92561 6.14495 7.92561 6.53548 7.53508Z" fill="#FF9A44"/>
</svg>
