<svg width="32" height="32" viewBox="0 0 30 30" fill="FC6076" xmlns="http://www.w3.org/2000/svg">
<path fill-rule="evenodd" clip-rule="evenodd" d="M16.473 2.84854C17.1106 3.16734 17.6276 3.68433 17.9464 4.32193L27.1515 22.732C27.9652 24.3595 27.3055 26.3385 25.6781 27.1522C25.2206 27.3809 24.7162 27.5 24.2047 27.5H5.79459C3.97504 27.5 2.5 26.025 2.5 24.2054C2.5 23.6939 2.61908 23.1895 2.84782 22.732L12.0529 4.32193C12.8666 2.69447 14.8456 2.03481 16.473 2.84854ZM14.0465 5.58943L5.11253 23.4575C5.03853 23.6055 5 23.7687 5 23.9341C5 24.5228 5.4772 25 6.06586 25H23.9339C24.0994 25 24.2626 24.9615 24.4106 24.8875C24.9371 24.6242 25.1505 23.984 24.8872 23.4575L15.9532 5.58943C15.8501 5.38315 15.6828 5.2159 15.4766 5.11276C14.95 4.8495 14.3098 5.06291 14.0465 5.58943ZM15 20C15.6904 20 16.25 20.5596 16.25 21.25C16.25 21.9404 15.6904 22.5 15 22.5C14.3096 22.5 13.75 21.9404 13.75 21.25C13.75 20.5596 14.3096 20 15 20ZM15 10C15.6904 10 16.25 10.5596 16.25 11.25V16.25C16.25 16.9404 15.6904 17.5 15 17.5C14.3096 17.5 13.75 16.9404 13.75 16.25V11.25C13.75 10.5596 14.3096 10 15 10Z" fill="#FF9A44"/>
</svg>
