<svg width="24" height="25" viewBox="0 0 24 25" fill="none" xmlns="http://www.w3.org/2000/svg">
<path fill-rule="evenodd" clip-rule="evenodd" d="M12 10.7524C13.1046 10.7524 14 11.639 14 12.7326C14 13.8263 13.1046 14.7128 12 14.7128C10.8954 14.7128 10 13.8263 10 12.7326C10 11.639 10.8954 10.7524 12 10.7524ZM5 10.7524C6.10457 10.7524 7 11.639 7 12.7326C7 13.8263 6.10457 14.7128 5 14.7128C3.89543 14.7128 3 13.8263 3 12.7326C3 11.639 3.89543 10.7524 5 10.7524ZM19 10.7524C20.1046 10.7524 21 11.639 21 12.7326C21 13.8263 20.1046 14.7128 19 14.7128C17.8954 14.7128 17 13.8263 17 12.7326C17 11.639 17.8954 10.7524 19 10.7524Z" fill="#252020"/>
</svg>
