<svg width="20" height="20" viewBox="0 0 20 20" fill="none" xmlns="http://www.w3.org/2000/svg">
<path fill-rule="evenodd" clip-rule="evenodd" d="M0.00614972 5.11043L0.578554 10.2621C0.882392 12.9966 2.42036 15.442 4.75352 16.9002L9.47003 19.848C9.7943 20.0507 10.2058 20.0507 10.53 19.848L15.2465 16.9002C17.5797 15.442 19.1177 12.9966 19.4215 10.2621L19.9939 5.11043C20.042 4.6774 19.8042 4.26305 19.4061 4.08614L10.4061 0.0873632C10.1476 -0.0274934 9.8525 -0.0274934 9.594 0.0873632L0.593998 4.08614C0.195832 4.26305 -0.0419651 4.6774 0.00614972 5.11043ZM2.07472 5.61677L10 2.09548L17.9253 5.61677L17.4337 10.0412C17.1974 12.1681 16.0012 14.07 14.1866 15.2042L10 17.8208L5.81352 15.2042C3.99884 14.07 2.80264 12.1681 2.56632 10.0412L2.07472 5.61677Z" fill="#FF9A44"/>
</svg>
