<svg width="711" height="660" viewBox="0 0 711 660" fill="none" xmlns="http://www.w3.org/2000/svg">
<g opacity="0.05" filter="url(#filter0_f_763_5374)">
<path d="M281.213 634.391C257.305 658.351 216.425 647.445 207.629 614.76L58.1826 59.4424C49.3865 26.7576 79.2714 -3.19249 111.975 5.53231L667.617 153.767C700.321 162.492 711.317 203.348 687.409 227.308L281.213 634.391Z" fill="#252020" fill-opacity="0.25"/>
<path d="M324.203 638.395C303.371 665.073 261.472 659.196 248.784 627.816L33.2176 94.6718C20.5298 63.292 46.5696 29.9447 80.0892 34.6466L649.589 114.533C683.108 119.235 698.968 158.459 678.136 185.137L324.203 638.395Z" fill="#252020" fill-opacity="0.5"/>
<path d="M373.652 623.321C356.728 652.634 314.418 652.634 297.494 623.321L9.9564 125.291C-6.9675 95.9777 14.1874 59.3365 48.0352 59.3365L623.11 59.3365C656.958 59.3365 678.113 95.9779 661.189 125.291L373.652 623.321Z" fill="#252020"/>
<path fill-rule="evenodd" clip-rule="evenodd" d="M560.581 38.7232C563.138 39.173 661.143 53.3138 688.294 57.1281L691.155 57.5354C704.713 59.4655 707.001 59.7912 707 60.1072C707 60.1714 706.905 60.2352 706.792 60.3118C706.753 60.3382 706.711 60.3662 706.671 60.3963C706.299 60.6871 685.87 73.3376 661.26 88.4943C636.65 103.651 616.488 116.206 616.457 116.379L612.073 119.027C611.969 119.009 610.305 119.963 608.42 121.163C606.54 122.329 582.759 137.026 555.585 153.797C528.411 170.569 506.254 184.34 506.305 184.456C506.362 184.537 530.11 188.858 559.077 194.095L611.735 203.572L500.71 260.81C439.673 292.286 389.778 318.134 389.8 318.21C389.948 318.378 476.743 332.862 482.17 333.603C484.497 333.942 486.144 334.302 485.947 334.41C485.743 334.553 453.654 345.045 414.588 357.73L343.595 380.793L337.833 382.772L335.953 383.332C335.033 383.591 309.738 391.801 277.938 402.122L268.183 405.288C231.946 417.081 202.258 426.678 202.236 426.603C202.185 426.487 220.778 412.73 292.309 359.874C298.358 355.414 300.808 353.589 301.658 352.699L306.286 349.472L307.993 348.276C312.428 345.138 329.007 332.701 329.044 332.494C329.068 332.355 328.804 332.238 328.493 332.183C328.141 332.157 319.555 330.54 309.427 328.58C299.293 326.655 290.034 324.812 288.877 324.502C287.554 324.127 286.719 324.015 286.676 324.257L279.71 322.747L275.529 322.011C273.214 321.604 269.881 320.911 268.102 320.491L264.828 319.666L269.098 316.855C269.856 316.353 270.599 315.862 271.258 315.427C272.627 314.522 273.665 313.836 273.856 313.702L273.885 313.681L278.46 310.415C278.598 310.439 308.248 290.933 344.363 267.077C380.443 243.216 417.567 218.683 426.834 212.583L443.684 201.44L442.216 201.075C441.614 200.943 429.925 198.479 413.703 195.059C407.77 193.808 401.229 192.429 394.403 190.99C368.916 185.616 348.007 181.154 347.95 181.073C347.893 180.992 389.255 152.823 439.867 118.444C490.473 84.0997 531.869 55.9368 531.812 55.8556L536.255 52.4693C536.513 52.6216 541.16 49.6985 547.346 45.5145L558.024 38.2734L560.581 38.7232Z" fill="url(#paint0_linear_763_5374)"/>
</g>
<defs>
<filter id="filter0_f_763_5374" x="0" y="0" width="711" height="659.312" filterUnits="userSpaceOnUse" color-interpolation-filters="sRGB">
<feFlood flood-opacity="0" result="BackgroundImageFix"/>
<feBlend mode="normal" in="SourceGraphic" in2="BackgroundImageFix" result="shape"/>
<feGaussianBlur stdDeviation="2" result="effect1_foregroundBlur_763_5374"/>
</filter>
<linearGradient id="paint0_linear_763_5374" x1="241.096" y1="205.698" x2="668.176" y2="280.826" gradientUnits="userSpaceOnUse">
<stop stop-color="#FC6076"/>
<stop offset="1" stop-color="#FF9A44"/>
</linearGradient>
</defs>
</svg>
