<svg width="180" height="180" viewBox="0 0 180 180" fill="none" xmlns="http://www.w3.org/2000/svg">
<g clip-path="url(#clip0_883_28323)">
<rect x="0.559876" y="0.559876" width="178.88" height="178.88" rx="44.2302" fill="white" stroke="#E1E1E1" stroke-width="1.11975"/>
<path d="M62.4271 118.134L62.4271 95.7389C62.4271 92.8014 64.8085 90.4201 67.746 90.4201L112.536 90.4201C115.474 90.4201 117.855 92.8014 117.855 95.7389L117.855 118.134C117.855 133.44 105.447 145.848 90.141 145.848C74.8351 145.848 62.4271 133.44 62.4271 118.134Z" fill="#EBEBEB" stroke="#E1E1E1" stroke-width="0.559876"/>
<path fill-rule="evenodd" clip-rule="evenodd" d="M116.864 92.7912C115.959 92.163 114.86 91.7947 113.675 91.7947L69.4106 91.7947C66.3185 91.7947 63.8119 94.3014 63.8119 97.3935L63.8119 118.806C63.8119 126.155 66.6701 132.835 71.3356 137.798C65.8564 132.732 62.4258 125.482 62.4258 117.432L62.4258 96.0189C62.4258 92.9268 64.9324 90.4202 68.0245 90.4202L112.289 90.4202C114.179 90.4202 115.85 91.3568 116.864 92.7912Z" fill="#D9D9D9"/>
<path d="M62.9863 59.9759V57.9325L72.2086 49.6116H62.9863V47.5894H75.885V49.6116L66.4758 57.9536H75.7812L76.612 59.7442C76.612 59.7442 76.4251 59.8565 76.0512 59.9127C75.6773 59.9548 75.0334 59.9759 74.1195 59.9759H62.9863Z" fill="url(#paint0_linear_883_28323)" fill-opacity="0.75"/>
<path fill-rule="evenodd" clip-rule="evenodd" d="M81.4059 54.6042H88.7197V52.5187H81.4059V54.6042Z" fill="url(#paint1_linear_883_28323)" fill-opacity="0.75"/>
<path fill-rule="evenodd" clip-rule="evenodd" d="M104.084 59.5546C104.084 59.6669 104.306 59.7652 104.749 59.8495C105.192 59.9338 105.884 59.9759 106.826 59.9759H113.722C115.037 59.9759 115.958 59.6529 116.484 59.0069C117.024 58.3609 117.294 57.5112 117.294 56.4579V56.1209C117.294 55.18 117.128 54.4708 116.796 53.9933C116.463 53.5018 115.986 53.1647 115.363 52.9821C114.739 52.7996 113.985 52.7083 113.099 52.7083H110.253L109.871 54.7306H112.912C113.604 54.7306 114.047 54.8359 114.241 55.0466C114.449 55.2572 114.552 55.6083 114.552 56.0998V56.5211C114.552 57.0408 114.428 57.4129 114.179 57.6376C113.929 57.8483 113.507 57.9536 112.912 57.9536H112.517C110.301 57.9536 108.557 57.9325 107.283 57.8904C106.023 57.8342 105.233 57.7781 104.915 57.7219L104.084 59.5546ZM108.093 54.7306L108.467 52.7082C107.882 52.7056 107.46 52.5933 107.2 52.3712C106.95 52.1325 106.826 51.7814 106.826 51.318V50.9598C106.84 50.5666 106.957 50.2436 107.179 49.9908C107.4 49.724 107.83 49.5906 108.467 49.5906L108.695 49.6116C110.841 49.6116 112.552 49.6397 113.826 49.6959C115.099 49.738 115.916 49.7802 116.276 49.8223L116.692 48.0528C116.692 47.9404 116.401 47.8351 115.82 47.7368C115.238 47.6385 114.476 47.5894 113.535 47.5894H107.885C106.916 47.5894 106.154 47.7509 105.6 48.0739C105.046 48.3828 104.652 48.7971 104.416 49.3167C104.195 49.8363 104.084 50.4051 104.084 51.023V51.3601C104.084 52.5538 104.402 53.4175 105.039 53.9512C105.676 54.4708 106.694 54.7306 108.093 54.7306Z" fill="url(#paint2_linear_883_28323)" fill-opacity="0.75"/>
<path d="M77.2904 59.9759V47.5894H92.9516V56.5001C92.9516 57.1601 93.1109 57.6025 93.4293 57.8272C93.7478 58.0519 94.1425 58.1643 94.6133 58.1643H99.0167C99.4598 58.1643 99.8476 58.0519 100.18 57.8272C100.512 57.5885 100.678 57.1461 100.678 56.5001V47.5894H103.42V56.4158C103.42 57.1742 103.316 57.8342 103.109 58.396C102.901 58.9577 102.555 59.4001 102.07 59.7231C101.585 60.0321 100.914 60.1866 100.055 60.1866H93.5955C92.3354 60.1866 91.4561 59.8425 90.9576 59.1543C90.4591 58.4662 90.2099 57.5534 90.2099 56.4158V49.6116H80.0321V52.5187V54.6042V57.9536H88.813L89.6439 59.7442C89.6439 59.7442 89.4569 59.8565 89.0831 59.9127C88.7092 59.9548 88.0653 59.9759 87.1514 59.9759H77.2904Z" fill="url(#paint3_linear_883_28323)" fill-opacity="0.75"/>
<rect x="99" y="98" width="13" height="13" rx="6.5" fill="#FF9A44"/>
<path fill-rule="evenodd" clip-rule="evenodd" d="M107.178 102.461C107.284 102.357 107.45 102.351 107.563 102.441L107.59 102.466L107.619 102.495C108.128 103.033 108.417 103.744 108.417 104.5C108.417 106.111 107.111 107.417 105.501 107.417C103.89 107.417 102.584 106.111 102.584 104.5C102.584 103.777 102.849 103.095 103.32 102.563L103.386 102.492L103.411 102.466C103.523 102.351 103.708 102.349 103.823 102.461C103.93 102.565 103.94 102.731 103.852 102.846L103.828 102.874L103.806 102.896C103.398 103.327 103.167 103.895 103.167 104.5C103.167 105.789 104.212 106.833 105.501 106.833C106.789 106.833 107.834 105.789 107.834 104.5C107.834 103.927 107.627 103.387 107.261 102.968L107.198 102.899L107.173 102.874C107.061 102.758 107.063 102.574 107.178 102.461ZM105.501 101.583C105.662 101.583 105.792 101.714 105.792 101.875V104.208C105.792 104.37 105.662 104.5 105.501 104.5C105.34 104.5 105.209 104.37 105.209 104.208V101.875C105.209 101.714 105.34 101.583 105.501 101.583Z" fill="black"/>
</g>
<defs>
<linearGradient id="paint0_linear_883_28323" x1="62.9863" y1="53.888" x2="117.294" y2="53.888" gradientUnits="userSpaceOnUse">
<stop stop-color="#FC6076"/>
<stop offset="1" stop-color="#FF9A44"/>
</linearGradient>
<linearGradient id="paint1_linear_883_28323" x1="62.9863" y1="53.888" x2="117.294" y2="53.888" gradientUnits="userSpaceOnUse">
<stop stop-color="#FC6076"/>
<stop offset="1" stop-color="#FF9A44"/>
</linearGradient>
<linearGradient id="paint2_linear_883_28323" x1="62.9863" y1="53.888" x2="117.294" y2="53.888" gradientUnits="userSpaceOnUse">
<stop stop-color="#FC6076"/>
<stop offset="1" stop-color="#FF9A44"/>
</linearGradient>
<linearGradient id="paint3_linear_883_28323" x1="62.9863" y1="53.888" x2="117.294" y2="53.888" gradientUnits="userSpaceOnUse">
<stop stop-color="#FC6076"/>
<stop offset="1" stop-color="#FF9A44"/>
</linearGradient>
<clipPath id="clip0_883_28323">
<rect width="180" height="180" fill="white"/>
</clipPath>
</defs>
</svg>
