<svg width="220" height="192" viewBox="0 0 220 192" fill="none" xmlns="http://www.w3.org/2000/svg">
<g clip-path="url(#clip0_887_28457)">
<rect x="0.559876" y="12.5599" width="178.88" height="178.88" rx="44.2302" fill="white" stroke="#E1E1E1" stroke-width="1.11975"/>
<path d="M62.4271 130.134L62.4271 107.739C62.4271 104.801 64.8085 102.42 67.746 102.42L112.536 102.42C115.474 102.42 117.855 104.801 117.855 107.739L117.855 130.134C117.855 145.44 105.447 157.848 90.141 157.848C74.8351 157.848 62.4271 145.44 62.4271 130.134Z" fill="#EBEBEB" stroke="#E1E1E1" stroke-width="0.559876"/>
<path fill-rule="evenodd" clip-rule="evenodd" d="M116.864 104.791C115.959 104.163 114.86 103.795 113.675 103.795L69.4106 103.795C66.3185 103.795 63.8119 106.301 63.8119 109.393L63.8119 130.806C63.8119 138.155 66.6701 144.835 71.3356 149.798C65.8564 144.732 62.4258 137.482 62.4258 129.432V108.019C62.4258 104.927 64.9324 102.42 68.0245 102.42L112.289 102.42C114.179 102.42 115.85 103.357 116.864 104.791Z" fill="#D9D9D9"/>
<path d="M62.9863 71.9759V69.9325L72.2086 61.6116H62.9863V59.5894H75.885V61.6116L66.4758 69.9536H75.7812L76.612 71.7442C76.612 71.7442 76.4251 71.8565 76.0512 71.9127C75.6773 71.9548 75.0334 71.9759 74.1195 71.9759H62.9863Z" fill="url(#paint0_linear_887_28457)" fill-opacity="0.75"/>
<path fill-rule="evenodd" clip-rule="evenodd" d="M81.4059 66.6042H88.7197V64.5187H81.4059V66.6042Z" fill="url(#paint1_linear_887_28457)" fill-opacity="0.75"/>
<path fill-rule="evenodd" clip-rule="evenodd" d="M104.084 71.5546C104.084 71.6669 104.306 71.7652 104.749 71.8495C105.192 71.9338 105.884 71.9759 106.826 71.9759H113.722C115.037 71.9759 115.958 71.6529 116.484 71.0069C117.024 70.3609 117.294 69.5112 117.294 68.4579V68.1209C117.294 67.18 117.128 66.4708 116.796 65.9933C116.463 65.5018 115.986 65.1647 115.363 64.9821C114.739 64.7996 113.985 64.7083 113.099 64.7083H110.253L109.871 66.7306H112.912C113.604 66.7306 114.047 66.8359 114.241 67.0466C114.449 67.2572 114.552 67.6083 114.552 68.0998V68.5211C114.552 69.0408 114.428 69.4129 114.179 69.6376C113.929 69.8483 113.507 69.9536 112.912 69.9536H112.517C110.301 69.9536 108.557 69.9325 107.283 69.8904C106.023 69.8342 105.233 69.7781 104.915 69.7219L104.084 71.5546ZM108.093 66.7306L108.467 64.7082C107.882 64.7056 107.46 64.5933 107.2 64.3712C106.95 64.1325 106.826 63.7814 106.826 63.318V62.9598C106.84 62.5666 106.957 62.2436 107.179 61.9908C107.4 61.724 107.83 61.5906 108.467 61.5906L108.695 61.6116C110.841 61.6116 112.552 61.6397 113.826 61.6959C115.099 61.738 115.916 61.7802 116.276 61.8223L116.692 60.0528C116.692 59.9404 116.401 59.8351 115.82 59.7368C115.238 59.6385 114.476 59.5894 113.535 59.5894H107.885C106.916 59.5894 106.154 59.7509 105.6 60.0739C105.046 60.3828 104.652 60.7971 104.416 61.3167C104.195 61.8363 104.084 62.4051 104.084 63.023V63.3601C104.084 64.5538 104.402 65.4175 105.039 65.9512C105.676 66.4708 106.694 66.7306 108.093 66.7306Z" fill="url(#paint2_linear_887_28457)" fill-opacity="0.75"/>
<path d="M77.2904 71.9759V59.5894H92.9516V68.5001C92.9516 69.1601 93.1109 69.6025 93.4293 69.8272C93.7478 70.0519 94.1425 70.1643 94.6133 70.1643H99.0167C99.4598 70.1643 99.8476 70.0519 100.18 69.8272C100.512 69.5885 100.678 69.1461 100.678 68.5001V59.5894H103.42V68.4158C103.42 69.1742 103.316 69.8342 103.109 70.396C102.901 70.9577 102.555 71.4001 102.07 71.7231C101.585 72.0321 100.914 72.1866 100.055 72.1866H93.5955C92.3354 72.1866 91.4561 71.8425 90.9576 71.1543C90.4591 70.4662 90.2099 69.5534 90.2099 68.4158V61.6116H80.0321V64.5187V66.6042V69.9536H88.813L89.6439 71.7442C89.6439 71.7442 89.4569 71.8565 89.0831 71.9127C88.7092 71.9548 88.0653 71.9759 87.1514 71.9759H77.2904Z" fill="url(#paint3_linear_887_28457)" fill-opacity="0.75"/>
<rect x="99" y="110" width="13" height="13" rx="6.5" fill="#FF9A44"/>
<path fill-rule="evenodd" clip-rule="evenodd" d="M107.178 114.461C107.284 114.357 107.45 114.351 107.563 114.441L107.59 114.466L107.619 114.495C108.128 115.033 108.417 115.744 108.417 116.5C108.417 118.111 107.111 119.417 105.501 119.417C103.89 119.417 102.584 118.111 102.584 116.5C102.584 115.777 102.849 115.095 103.32 114.563L103.386 114.492L103.411 114.466C103.523 114.351 103.708 114.349 103.823 114.461C103.93 114.565 103.94 114.731 103.852 114.846L103.828 114.874L103.806 114.896C103.398 115.327 103.167 115.895 103.167 116.5C103.167 117.789 104.212 118.833 105.501 118.833C106.789 118.833 107.834 117.789 107.834 116.5C107.834 115.927 107.627 115.387 107.261 114.968L107.198 114.899L107.173 114.874C107.061 114.758 107.063 114.574 107.178 114.461ZM105.501 113.583C105.662 113.583 105.792 113.714 105.792 113.875V116.208C105.792 116.37 105.662 116.5 105.501 116.5C105.34 116.5 105.209 116.37 105.209 116.208V113.875C105.209 113.714 105.34 113.583 105.501 113.583Z" fill="black"/>
<line x1="112" y1="110.586" x2="151.586" y2="71" stroke="#E1E1E1" stroke-width="2" stroke-linecap="round" stroke-dasharray="5 5"/>
</g>
<circle cx="180" cy="40" r="39.5" fill="white" stroke="#E1E1E1"/>
<path fill-rule="evenodd" clip-rule="evenodd" d="M191.502 26.0189C192.231 25.3063 193.366 25.264 194.144 25.8832L194.33 26.0517L194.524 26.2506C198.017 29.9392 200 34.8166 200 40C200 51.0457 191.046 60 180 60C168.954 60 160 51.0457 160 40C160 35.0419 161.814 30.3639 165.048 26.7187L165.497 26.2281L165.67 26.0517C166.442 25.2617 167.708 25.247 168.498 26.0189C169.227 26.7315 169.296 27.8652 168.695 28.6568L168.531 28.8471L168.38 29.0009C165.584 31.9538 164 35.85 164 40C164 48.8365 171.163 56 180 56C188.837 56 196 48.8365 196 40C196 36.0684 194.578 32.3646 192.07 29.4941L191.642 29.0235L191.469 28.8471C190.697 28.0571 190.712 26.7908 191.502 26.0189ZM180 20C181.105 20 182 20.8954 182 22V38C182 39.1046 181.105 40 180 40C178.895 40 178 39.1046 178 38V22C178 20.8954 178.895 20 180 20Z" fill="#FF9A44"/>
<defs>
<linearGradient id="paint0_linear_887_28457" x1="62.9863" y1="65.888" x2="117.294" y2="65.888" gradientUnits="userSpaceOnUse">
<stop stop-color="#FC6076"/>
<stop offset="1" stop-color="#FF9A44"/>
</linearGradient>
<linearGradient id="paint1_linear_887_28457" x1="62.9863" y1="65.888" x2="117.294" y2="65.888" gradientUnits="userSpaceOnUse">
<stop stop-color="#FC6076"/>
<stop offset="1" stop-color="#FF9A44"/>
</linearGradient>
<linearGradient id="paint2_linear_887_28457" x1="62.9863" y1="65.888" x2="117.294" y2="65.888" gradientUnits="userSpaceOnUse">
<stop stop-color="#FC6076"/>
<stop offset="1" stop-color="#FF9A44"/>
</linearGradient>
<linearGradient id="paint3_linear_887_28457" x1="62.9863" y1="65.888" x2="117.294" y2="65.888" gradientUnits="userSpaceOnUse">
<stop stop-color="#FC6076"/>
<stop offset="1" stop-color="#FF9A44"/>
</linearGradient>
<clipPath id="clip0_887_28457">
<rect width="180" height="180" fill="white" transform="translate(0 12)"/>
</clipPath>
</defs>
</svg>
