<svg width="93" height="22" viewBox="0 0 93 22" fill="none" xmlns="http://www.w3.org/2000/svg">
<path d="M0.730469 21.2732V17.7849L16.3816 3.57981H0.730469V0.127441H22.6209V3.57981L6.65251 17.8208H22.4446L23.8546 20.8776C23.8546 20.8776 23.5374 21.0694 22.9029 21.1653C22.2684 21.2372 21.1756 21.2732 19.6246 21.2732H0.730469Z" fill="#252020"/>
<path fill-rule="evenodd" clip-rule="evenodd" d="M31.9902 12.1028H44.4026V8.54258H31.9902V12.1028Z" fill="#252020"/>
<path fill-rule="evenodd" clip-rule="evenodd" d="M70.4772 20.5539C70.4772 20.7457 70.8532 20.9136 71.6052 21.0574C72.3572 21.2013 73.5322 21.2732 75.1302 21.2732H86.8333C89.0658 21.2732 90.6286 20.7218 91.5216 19.6189C92.4381 18.5161 92.8964 17.0656 92.8964 15.2675V14.6921C92.8964 13.0858 92.6144 11.8751 92.0504 11.0599C91.4863 10.2208 90.6756 9.64542 89.6181 9.33375C88.5606 9.02207 87.2798 8.86624 85.7758 8.86624H80.946L80.298 12.3186H85.4586C86.6336 12.3186 87.3856 12.4984 87.7146 12.858C88.0671 13.2177 88.2433 13.817 88.2433 14.6561V15.3754C88.2433 16.2625 88.0318 16.8978 87.6088 17.2814C87.1858 17.641 86.4691 17.8208 85.4586 17.8208H84.7888C81.0288 17.8208 78.0678 17.7849 75.9058 17.7129C73.7672 17.617 72.4277 17.5211 71.8872 17.4252L70.4772 20.5539ZM77.2805 12.3186L77.915 8.86616C76.9228 8.86174 76.206 8.66996 75.7647 8.29084C75.3417 7.88327 75.1302 7.2839 75.1302 6.49274V5.88138C75.1537 5.21009 75.3535 4.65867 75.7295 4.22712C76.1055 3.7716 76.834 3.54384 77.915 3.54384L78.3028 3.57981C81.9453 3.57981 84.8476 3.62775 87.0096 3.72365C89.1716 3.79558 90.5581 3.8675 91.1691 3.93942L91.8741 0.918607C91.8741 0.726809 91.3806 0.546999 90.3936 0.379175C89.4066 0.211353 88.1141 0.127441 86.5161 0.127441H76.928C75.283 0.127441 73.9905 0.40315 73.0505 0.95457C72.1105 1.48201 71.4407 2.18927 71.0412 3.07633C70.6652 3.9634 70.4772 4.93438 70.4772 5.98927V6.56466C70.4772 8.60252 71.0177 10.077 72.0987 10.988C73.1797 11.8751 74.907 12.3186 77.2805 12.3186Z" fill="#252020"/>
<path d="M25.0058 21.2732V0.127441H51.5845V15.3394C51.5845 16.4662 51.8548 17.2215 52.3953 17.6051C52.9358 17.9886 53.6055 18.1804 54.4045 18.1804H61.8776C62.6296 18.1804 63.2876 17.9886 63.8516 17.6051C64.4156 17.1975 64.6976 16.4423 64.6976 15.3394V0.127441H69.3506V15.1956C69.3506 16.4902 69.1744 17.617 68.8219 18.576C68.4694 19.535 67.8819 20.2902 67.0594 20.8416C66.2369 21.3691 65.0971 21.6328 63.6401 21.6328H52.6773C50.5388 21.6328 49.0465 21.0454 48.2005 19.8707C47.3545 18.6959 46.9315 17.1375 46.9315 15.1956V3.57981H29.6589V8.54258V12.1028V17.8208H44.5609L45.9709 20.8776C45.9709 20.8776 45.6537 21.0694 45.0192 21.1653C44.3847 21.2372 43.2919 21.2732 41.7409 21.2732H25.0058Z" fill="#252020"/>
</svg>
