<svg width="143" height="34" viewBox="0 0 143 34" fill="none" xmlns="http://www.w3.org/2000/svg">
<path d="M0 33.4314V27.9164L24.2835 5.45819H0V0H33.964V5.45819L9.18834 27.9732H33.6906L35.8783 32.806C35.8783 32.806 35.386 33.1092 34.4016 33.2609C33.4171 33.3746 31.7216 33.4314 29.3152 33.4314H0Z" fill="#252020"/>
<path d="M80.5981 34C77.28 34 74.9647 33.0713 73.6521 31.214C72.3395 29.3567 71.6832 26.893 71.6832 23.8227V0H78.9026V24.0502C78.9026 25.8316 79.3219 27.0256 80.1605 27.6321C80.9991 28.2386 82.0383 28.5418 83.278 28.5418H94.8728C96.0396 28.5418 97.0605 28.2386 97.9356 27.6321C98.8107 26.9877 99.2482 25.7937 99.2482 24.0502V0H106.468V23.8227C106.468 25.8696 106.194 27.6511 105.647 29.1672C105.1 30.6834 104.189 31.8774 102.913 32.7491C101.636 33.583 99.868 34 97.6074 34H80.5981Z" fill="#252020"/>
<path fill-rule="evenodd" clip-rule="evenodd" d="M37.6644 0V33.4314H63.6298C66.0362 33.4314 67.7317 33.3746 68.7162 33.2609C69.7006 33.1092 70.1929 32.806 70.1929 32.806L68.0052 27.9732H44.8839V18.9331V13.3043V5.45819H71.6832V0H37.6644ZM48.5011 18.9331H67.7594V13.3043H48.5011V18.9331Z" fill="#252020"/>
<path fill-rule="evenodd" clip-rule="evenodd" d="M108.216 32.2943C108.216 32.5975 108.799 32.8629 109.966 33.0903C111.132 33.3177 112.956 33.4314 115.435 33.4314H133.593C137.057 33.4314 139.481 32.5596 140.867 30.816C142.289 29.0725 143 26.7792 143 23.9364V23.0267C143 20.4872 142.562 18.573 141.687 17.2843C140.812 15.9576 139.554 15.0479 137.914 14.5552C136.273 14.0624 134.286 13.816 131.952 13.816H124.458L123.453 19.2742H131.46C133.283 19.2742 134.45 19.5585 134.96 20.1271C135.507 20.6956 135.781 21.6432 135.781 22.9699V24.107C135.781 25.5095 135.452 26.5139 134.796 27.1204C134.14 27.689 133.028 27.9732 131.46 27.9732H130.421C124.587 27.9732 119.993 27.9164 116.638 27.8027C113.32 27.6511 111.242 27.4994 110.403 27.3478L108.216 32.2943ZM118.771 19.2742L119.756 13.8159C118.216 13.8089 117.104 13.5057 116.419 12.9063C115.763 12.262 115.435 11.3144 115.435 10.0635V9.09698C115.471 8.03567 115.781 7.16387 116.365 6.4816C116.948 5.76142 118.078 5.40133 119.756 5.40133L120.357 5.45819C126.009 5.45819 130.512 5.53399 133.866 5.68561C137.221 5.79932 139.372 5.91303 140.32 6.02674L141.414 1.25083C141.414 0.947601 140.648 0.663321 139.117 0.397991C137.585 0.132663 135.58 0 133.101 0H118.224C115.672 0 113.667 0.435896 112.208 1.30769C110.75 2.14158 109.71 3.25975 109.091 4.6622C108.507 6.06465 108.216 7.59977 108.216 9.26755V10.1772C108.216 13.3991 109.054 15.7302 110.731 17.1706C112.409 18.573 115.089 19.2742 118.771 19.2742Z" fill="#252020"/>
</svg>
