<svg width="24" height="24" viewBox="0 0 24 24" fill="none" xmlns="http://www.w3.org/2000/svg">
<path fill-rule="evenodd" clip-rule="evenodd" d="M5 7C5 5.40232 6.24892 4.09634 7.82373 4.00509L8 4H8.17L8.24671 3.80669C8.66013 2.85414 9.55339 2.15812 10.6215 2.02365L10.8237 2.00509L11 2H13C14.2181 2 15.274 2.72834 15.7434 3.79884L15.822 4H16C17.5385 4 18.8065 5.15812 18.9798 6.65014L18.9949 6.82373L19 7V19C19 20.5977 17.7511 21.9037 16.1763 21.9949L16 22H8C6.40232 22 5.09634 20.7511 5.00509 19.1763L5 19V7ZM7 7V19C7 19.5128 7.38604 19.9355 7.88338 19.9933L8 20H16C16.5128 20 16.9355 19.614 16.9933 19.1166L17 19V7C17 6.48716 16.614 6.06449 16.1166 6.00673L16 6H15C14.5004 6 14.084 5.63299 14.0112 5.15011L14.0007 5.03673L13.9972 4.92432C13.9619 4.44539 13.5888 4.06305 13.1193 4.00707L13 4H11C10.4872 4 10.0645 4.38604 10.0067 4.88338L9.99327 5.11662C9.93995 5.5757 9.5757 5.93995 9.11662 5.99327L9 6H8C7.48716 6 7.06449 6.38604 7.00673 6.88338L7 7ZM9 9C9 8.44772 9.44771 8 10 8H14C14.5523 8 15 8.44772 15 9V17C15 17.5523 14.5523 18 14 18H10C9.44771 18 9 17.5523 9 17V9Z" fill="#FF9A44"/>
</svg>
