<svg width="16" height="16" viewBox="0 0 16 16" fill="none" xmlns="http://www.w3.org/2000/svg">
<path fill-rule="evenodd" clip-rule="evenodd" d="M2.86177 10.1953L10.1951 2.86195C10.4354 2.62163 10.8136 2.60314 11.0751 2.80649L11.1379 2.86195L13.1379 4.86195C13.3782 5.10227 13.3967 5.48043 13.1934 5.74195L13.1379 5.80476L5.80457 13.1381C5.70039 13.2423 5.56527 13.3084 5.4208 13.3276L5.33317 13.3334H3.33317C2.99128 13.3334 2.7095 13.076 2.67099 12.7444L2.6665 12.6667V10.6667C2.6665 10.5193 2.71528 10.377 2.80389 10.2613L2.86177 10.1953L10.1951 2.86195L2.86177 10.1953ZM10.6665 4.27616L3.99984 10.9428V12H5.05703L11.7237 5.33335L10.6665 4.27616Z" fill="#252020"/>
</svg>
