<svg width="32" height="32" viewBox="0 0 32 32" fill="none" xmlns="http://www.w3.org/2000/svg">
<path fill-rule="evenodd" clip-rule="evenodd" d="M16.0001 2.66663C23.3639 2.66663 29.3334 8.63616 29.3334 16C29.3334 23.3638 23.3639 29.3333 16.0001 29.3333C8.63628 29.3333 2.66675 23.3638 2.66675 16C2.66675 8.63616 8.63628 2.66663 16.0001 2.66663ZM16.0001 5.33329C10.109 5.33329 5.33342 10.1089 5.33342 16C5.33342 21.891 10.109 26.6666 16.0001 26.6666C21.8911 26.6666 26.6668 21.891 26.6668 16C26.6668 10.1089 21.8911 5.33329 16.0001 5.33329ZM16.0001 7.99996C16.6839 7.99996 17.2474 8.51468 17.3244 9.1778L17.3334 9.33329V15.4477L19.6096 17.7238C20.1303 18.2445 20.1303 19.0887 19.6096 19.6094C19.1289 20.0901 18.3726 20.1271 17.8496 19.7204L17.7239 19.6094L15.0573 16.9428C14.8489 16.7344 14.7166 16.4642 14.6783 16.1752L14.6667 16V9.33329C14.6667 8.59691 15.2637 7.99996 16.0001 7.99996Z" fill="#FF9A44"/>
</svg>
