<svg width="24" height="24" viewBox="0 0 24 24" fill="none" xmlns="http://www.w3.org/2000/svg">
<path fill-rule="evenodd" clip-rule="evenodd" d="M19 2C20.5977 2 21.9037 3.24892 21.9949 4.82373L22 5V19C22 20.5977 20.7511 21.9037 19.1763 21.9949L19 22H5C3.40232 22 2.09634 20.7511 2.00509 19.1763L2 19V5C2 3.40232 3.24892 2.09634 4.82373 2.00509L5 2H19Z" fill="#FF9A44"/>
<rect x="3.5" y="3.5" width="17" height="17" rx="2" fill="white"/>
<path fill-rule="evenodd" clip-rule="evenodd" d="M10.955 14.7479L7.85355 11.6465C7.65829 11.4512 7.34171 11.4512 7.14645 11.6465C6.95118 11.8417 6.95118 12.1583 7.14645 12.3536L10.6464 15.8535C10.8584 16.0655 11.208 16.0446 11.3932 15.8089L16.8931 8.80893C17.0637 8.59179 17.026 8.27747 16.8089 8.10686C16.5918 7.93626 16.2774 7.97397 16.1068 8.19111L10.955 14.7479Z" fill="#FF9A44" stroke="#FF9A44" stroke-width="0.5"/>
</svg>
