<svg width="32" height="32" viewBox="0 0 30 30" fill="none" xmlns="http://www.w3.org/2000/svg">
<path fill-rule="evenodd" clip-rule="evenodd" d="M2.50769 8.88798L3.22319 15.3275C3.60299 18.7457 5.52545 21.8024 8.4419 23.6252L14.3375 27.3099C14.7429 27.5633 15.2572 27.5633 15.6625 27.3099L21.5582 23.6252C24.4746 21.8024 26.3971 18.7457 26.7769 15.3275L27.4924 8.88798C27.5525 8.34669 27.2553 7.82875 26.7576 7.60762L15.5076 2.60914C15.1845 2.46557 14.8156 2.46557 14.4925 2.60914L3.2425 7.60762C2.74479 7.82875 2.44754 8.34669 2.50769 8.88798ZM5.0934 9.5209L15 5.11929L24.9067 9.5209L24.2922 15.0515C23.9968 17.71 22.5015 20.0874 20.2332 21.5052L15 24.7759L9.76689 21.5052C7.49855 20.0874 6.0033 17.71 5.7079 15.0515L5.0934 9.5209Z" fill="#FF9A44"/>
</svg>
