<svg width="32" height="32" viewBox="0 0 32 32" fill="none" xmlns="http://www.w3.org/2000/svg">
<path d="M15.1012 4.01849C13.7904 4.14209 12.6106 4.4155 11.5431 4.84247C8.82027 5.92862 6.5768 7.98482 5.25844 10.6028C4.6854 11.7414 4.25094 13.1721 4.06742 14.5167C3.97753 15.1722 3.97753 16.8201 4.06742 17.4756C4.50188 20.6741 6.04122 23.4082 8.52814 25.4045C9.7229 26.3633 11.1611 27.1049 12.5918 27.5056C13.8915 27.8689 14.7866 28 16.0039 28C19.3897 28 22.6669 26.5318 24.9103 24.0112C26.2399 22.5205 27.1088 20.8876 27.6145 18.9362C27.7755 18.322 27.783 18.1684 27.6594 17.9587C27.5021 17.6928 27.0452 17.6553 26.8467 17.8913C26.7942 17.955 26.6894 18.116 26.6107 18.2546C25.3747 20.4756 23.2811 22.0973 20.8691 22.6966C20.0077 22.9138 19.6069 22.9588 18.6406 22.9625C17.7192 22.9625 17.3072 22.9176 16.5245 22.734C14.3147 22.2172 12.3222 20.8239 11.0413 18.8988C10.4345 17.9924 9.95137 16.8576 9.73039 15.8276C9.40455 14.3182 9.47196 12.5654 9.91017 11.1834C10.0225 10.835 10.3109 10.1234 10.4757 9.79757C11.6181 7.52789 13.5844 5.87244 16.0338 5.11588C16.4645 4.98104 16.5732 4.90239 16.6331 4.67767C16.7155 4.38179 16.5395 4.10463 16.2248 4.03347C16.0675 3.99602 15.4046 3.98853 15.1012 4.01849Z" fill="#FF9A44"/>
</svg>
