<svg width="20" height="20" viewBox="0 0 20 20" fill="none" xmlns="http://www.w3.org/2000/svg">
<path fill-rule="evenodd" clip-rule="evenodd" d="M9.1665 1.6665C13.3086 1.6665 16.6665 5.02437 16.6665 9.1665C16.6665 10.9372 16.0529 12.5645 15.0268 13.8475L18.0891 16.9106C18.4145 17.236 18.4145 17.7637 18.0891 18.0891C17.7887 18.3895 17.316 18.4126 16.9891 18.1584L16.9106 18.0891L13.8475 15.0268C12.5645 16.0529 10.9372 16.6665 9.1665 16.6665C5.02437 16.6665 1.6665 13.3086 1.6665 9.1665C1.6665 5.02437 5.02437 1.6665 9.1665 1.6665ZM9.1665 3.33317C5.94484 3.33317 3.33317 5.94484 3.33317 9.1665C3.33317 12.3882 5.94484 14.9998 9.1665 14.9998C12.3882 14.9998 14.9998 12.3882 14.9998 9.1665C14.9998 5.94484 12.3882 3.33317 9.1665 3.33317Z" fill="#E1E1E1"/>
</svg>
