<svg width="32" height="32" viewBox="0 0 32 32" fill="none" xmlns="http://www.w3.org/2000/svg">
<path fill-rule="evenodd" clip-rule="evenodd" d="M3.43791 16.3496L2.6747 9.48074C2.61055 8.90336 2.92761 8.3509 3.4585 8.11502L15.4585 2.78331C15.8032 2.63017 16.1966 2.63017 16.5413 2.78331L24.8611 6.47989L27.9496 3.30317C28.3346 2.90718 28.9677 2.89826 29.3637 3.28325C29.7597 3.66823 29.7686 4.30134 29.3836 4.69732L26.8091 7.34539L28.5413 8.11502C29.0722 8.3509 29.3892 8.90336 29.3251 9.48074L28.5619 16.3496C28.1567 19.9956 26.1061 23.2561 22.9952 25.2004L16.7065 29.1308C16.2742 29.4011 15.7256 29.4011 15.2932 29.1308L9.28165 25.3736L6.05025 28.6973C5.66526 29.0933 5.03216 29.1022 4.63617 28.7172C4.24019 28.3323 4.23127 27.6992 4.61626 27.3032L7.63211 24.2011C5.29557 22.2325 3.78002 19.4286 3.43791 16.3496ZM11.1834 23.4175L15.9999 26.4278L21.5819 22.9391C24.0015 21.4268 25.5964 18.8909 25.9115 16.0551L26.567 10.1559L24.8279 9.38317L11.1834 23.4175ZM22.8799 8.51767L9.49707 22.2829C7.59659 20.7468 6.36144 18.5137 6.08827 16.0551L5.43279 10.1559L15.9999 5.46081L22.8799 8.51767Z" fill="#BFBFBF"/>
</svg>
