<svg width="24" height="24" viewBox="0 0 24 24" fill="none" xmlns="http://www.w3.org/2000/svg">
<path d="M11.3259 3.01387C10.3428 3.10656 9.45793 3.31162 8.65736 3.63185C6.6152 4.44647 4.9326 5.98862 3.94383 7.95212C3.51405 8.80606 3.1882 9.8791 3.05056 10.8875C2.98315 11.3791 2.98315 12.6151 3.05056 13.1067C3.37641 15.5056 4.53091 17.5561 6.3961 19.0534C7.29218 19.7725 8.37084 20.3286 9.44388 20.6292C10.4186 20.9017 11.09 21 12.0029 21C14.5422 21 17.0001 19.8989 18.6827 18.0084C19.6799 16.8904 20.3316 15.6657 20.7109 14.2022C20.8316 13.7415 20.8373 13.6263 20.7446 13.469C20.6266 13.2696 20.2839 13.2415 20.135 13.4185C20.0957 13.4662 20.017 13.587 19.958 13.6909C19.0311 15.3567 17.4608 16.573 15.6518 17.0224C15.0057 17.1854 14.7052 17.2191 13.9804 17.2219C13.2894 17.2219 12.9804 17.1882 12.3934 17.0505C10.736 16.6629 9.24164 15.6179 8.28095 14.1741C7.82589 13.4943 7.46353 12.6432 7.2978 11.8707C7.05341 10.7387 7.10397 9.42404 7.43263 8.38752C7.5169 8.12628 7.73319 7.59256 7.85679 7.34818C8.71354 5.64592 10.1883 4.40433 12.0254 3.83691C12.3484 3.73578 12.4299 3.6768 12.4748 3.50825C12.5366 3.28634 12.4046 3.07847 12.1686 3.0251C12.0507 2.99701 11.5535 2.9914 11.3259 3.01387Z" fill="#FF9A44"/>
</svg>
