<svg width="32" height="32" viewBox="0 0 32 32" fill="none" xmlns="http://www.w3.org/2000/svg">
<path fill-rule="evenodd" clip-rule="evenodd" d="M17.5711 3.03828C18.2512 3.37833 18.8026 3.92979 19.1427 4.60989L28.9614 24.2473C29.8294 25.9833 29.1257 28.0942 27.3898 28.9622C26.9018 29.2061 26.3637 29.3332 25.8182 29.3332H6.18073C4.23988 29.3332 2.6665 27.7598 2.6665 25.8189C2.6665 25.2734 2.79353 24.7353 3.03751 24.2473L12.8562 4.60989C13.7242 2.87394 15.8351 2.1703 17.5711 3.03828ZM14.9828 5.96189L5.4532 25.0211C5.37426 25.179 5.33317 25.3531 5.33317 25.5296C5.33317 26.1575 5.84219 26.6665 6.47009 26.6665H25.5293C25.7058 26.6665 25.8799 26.6254 26.0378 26.5465C26.5994 26.2657 26.827 25.5828 26.5462 25.0211L17.0166 5.96189C16.9066 5.74187 16.7282 5.56346 16.5082 5.45345C15.9465 5.17264 15.2636 5.40028 14.9828 5.96189ZM15.9998 21.3332C16.7362 21.3332 17.3332 21.9301 17.3332 22.6665C17.3332 23.4029 16.7362 23.9998 15.9998 23.9998C15.2635 23.9998 14.6665 23.4029 14.6665 22.6665C14.6665 21.9301 15.2635 21.3332 15.9998 21.3332ZM15.9998 10.6665C16.7362 10.6665 17.3332 11.2635 17.3332 11.9998V17.3332C17.3332 18.0695 16.7362 18.6665 15.9998 18.6665C15.2635 18.6665 14.6665 18.0695 14.6665 17.3332V11.9998C14.6665 11.2635 15.2635 10.6665 15.9998 10.6665Z" fill="#FC6076"/>
</svg>
