<svg width="24" height="24" viewBox="0 0 24 24" fill="#FF9A44" xmlns="http://www.w3.org/2000/svg">
<path fill-rule="evenodd" clip-rule="evenodd" d="M6 22C5.44772 22 5 21.5523 5 21V15C5 14.4477 5.44772 14 6 14C6.55228 14 7 14.4477 7 15V21C7 21.5523 6.55228 22 6 22Z" 
/>
<path fill-rule="evenodd" clip-rule="evenodd" d="M10 22C9.44772 22 9 21.5523 9 21V11C9 10.4477 9.44772 10 10 10C10.5523 10 11 10.4477 11 11V21C11 21.5523 10.5523 22 10 22Z" 
/>
<path fill-rule="evenodd" clip-rule="evenodd" d="M14 22C13.4477 22 13 21.5523 13 21L13 7C13 6.44771 13.4477 6 14 6C14.5523 6 15 6.44771 15 7V21C15 21.5523 14.5523 22 14 22Z" 
/>
<path fill-rule="evenodd" clip-rule="evenodd" d="M18 22C17.4477 22 17 21.5523 17 21V3C17 2.44772 17.4477 2 18 2C18.5523 2 19 2.44772 19 3V21C19 21.5523 18.5523 22 18 22Z"/>
</svg>
