<svg width="20" height="20" viewBox="0 0 20 20" fill="none" xmlns="http://www.w3.org/2000/svg">
<path fill-rule="evenodd" clip-rule="evenodd" d="M9.99984 1.6665C14.6022 1.6665 18.3332 5.39746 18.3332 9.99984C18.3332 14.6022 14.6022 18.3332 9.99984 18.3332C5.39746 18.3332 1.6665 14.6022 1.6665 9.99984C1.6665 5.39746 5.39746 1.6665 9.99984 1.6665ZM12.4769 10.8338H7.5228C7.61525 12.5034 7.98245 14.0234 8.54427 15.147C9.06751 16.1935 9.62664 16.6665 9.99984 16.6665C10.373 16.6665 10.9322 16.1935 11.4554 15.147C12.0172 14.0234 12.3844 12.5034 12.4769 10.8338ZM16.6148 10.834L14.1459 10.8342C14.0451 12.8625 13.5806 14.6767 12.8848 16.0125C14.8833 15.0512 16.3291 13.1228 16.6148 10.834ZM5.8538 10.8342L3.38485 10.834C3.67054 13.1227 5.11644 15.0511 7.11537 16.0119C6.46263 14.7601 6.01359 13.0874 5.87693 11.2119L5.8538 10.8342ZM7.11487 3.98714L7.09308 3.99855C5.10549 4.96303 3.6692 6.88583 3.38477 9.16636L5.85375 9.16629C5.95449 7.1377 6.41895 5.32312 7.11487 3.98714ZM9.99984 3.33317L9.93209 3.3381C9.56099 3.3908 9.03673 3.86771 8.54427 4.85264C7.98236 5.97646 7.61513 7.49678 7.52275 9.16669H12.4769C12.3845 7.49678 12.0173 5.97646 11.4554 4.85264C10.9322 3.80615 10.373 3.33317 9.99984 3.33317ZM12.8843 3.98778L12.9031 4.02254C13.5889 5.35522 14.0462 7.1559 14.1459 9.16687L16.6149 9.16652C16.3295 6.8774 14.8835 4.94869 12.8843 3.98778Z" fill="#FF9A44"/>
</svg>
