<svg width="32" height="32" viewBox="0 0 32 32" fill="none" xmlns="http://www.w3.org/2000/svg">
<path fill-rule="evenodd" clip-rule="evenodd" d="M2.6747 9.48074L3.43791 16.3496C3.84303 19.9956 5.89366 23.2561 9.00453 25.2004L15.2932 29.1308C15.7256 29.4011 16.2742 29.4011 16.7065 29.1308L22.9952 25.2004C26.1061 23.2561 28.1567 19.9956 28.5619 16.3496L29.3251 9.48074C29.3892 8.90336 29.0722 8.3509 28.5413 8.11502L16.5413 2.78331C16.1966 2.63017 15.8032 2.63017 15.4585 2.78331L3.4585 8.11502C2.92761 8.3509 2.61055 8.90336 2.6747 9.48074ZM5.43279 10.1559L15.9999 5.46081L26.567 10.1559L25.9115 16.0551C25.5964 18.8909 24.0015 21.4268 21.5819 22.9391L15.9999 26.4278L10.4179 22.9391C7.99829 21.4268 6.40336 18.8909 6.08827 16.0551L5.43279 10.1559Z" fill="#FF9A44"/>
</svg>
